<svg width="1360" height="820" viewBox="0 0 1360 820" fill="none" xmlns="http://www.w3.org/2000/svg">
  <defs>
    <filter id="panelShadow" x="8" y="4" width="1344" height="808" filterUnits="userSpaceOnUse" color-interpolation-filters="sRGB">
      <feDropShadow dx="0" dy="32" stdDeviation="40" flood-color="#7D8794" flood-opacity=".16"/>
      <feDropShadow dx="0" dy="8" stdDeviation="14" flood-color="#7D8794" flood-opacity=".08"/>
    </filter>
    <linearGradient id="panel" x1="680" y1="42" x2="680" y2="790" gradientUnits="userSpaceOnUse">
      <stop stop-color="#FFFFFF" stop-opacity=".9"/>
      <stop offset="1" stop-color="#F7FAFC" stop-opacity=".76"/>
    </linearGradient>
    <linearGradient id="divider" x1="92" y1="410" x2="1268" y2="410" gradientUnits="userSpaceOnUse">
      <stop stop-color="#D6DCE2" stop-opacity="0"/>
      <stop offset=".16" stop-color="#CBD2DA" stop-opacity=".85"/>
      <stop offset=".84" stop-color="#CBD2DA" stop-opacity=".85"/>
      <stop offset="1" stop-color="#D6DCE2" stop-opacity="0"/>
    </linearGradient>
    <filter id="buttonShadow" x="610" y="340" width="140" height="140" filterUnits="userSpaceOnUse" color-interpolation-filters="sRGB">
      <feDropShadow dx="0" dy="10" stdDeviation="12" flood-color="#73808D" flood-opacity=".18"/>
      <feDropShadow dx="0" dy="2" stdDeviation="4" flood-color="#73808D" flood-opacity=".1"/>
    </filter>
    <style>
      .tool, .action { stroke: #555b60; stroke-linecap: round; stroke-linejoin: round; }
      .tool { stroke-width: 2.15; }
      .action { stroke-width: 2.5; }
      .cyan { stroke: #12bfd0; }
      .label { font-family: -apple-system, BlinkMacSystemFont, "SF Pro Display", "Helvetica Neue", Arial, sans-serif; }
    </style>
  </defs>

  <rect width="1360" height="820" fill="#F2F4F7"/>
  <rect x="34" y="34" width="1292" height="752" rx="58" fill="url(#panel)" filter="url(#panelShadow)"/>
  <rect x="36" y="36" width="1288" height="748" rx="56" stroke="#FFFFFF" stroke-opacity=".92" stroke-width="2"/>
  <rect x="38" y="38" width="1284" height="744" rx="54" stroke="#D9DEE5" stroke-opacity=".45" stroke-width="1"/>

  <!-- top toolbar -->
  <g transform="translate(150 64)" class="tool">
    <path d="M15.4 2.8 27.2 14.6"/>
    <path d="M7.8 10.4 19.6 22.2"/>
    <path d="M23.4 7.4 12.2 18.6"/>
    <path d="M10.5 16.3 2.8 24"/>
    <path d="M7.8 10.4 16.2 2"/>
    <path d="M19.6 22.2 28 13.8"/>
  </g>

  <g transform="translate(1024 64)" class="tool">
    <path d="m16 2.8 4.1 8.2 9.1 1.3-6.6 6.4 1.6 9-8.2-4.3-8.2 4.3 1.6-9-6.6-6.4 9.1-1.3L16 2.8Z"/>
  </g>
  <g transform="translate(1094 64)" class="tool">
    <path d="M9 3H5.5C4.1 3 3 4.1 3 5.5V9"/>
    <path d="M23 9V5.5C23 4.1 21.9 3 20.5 3H17"/>
    <path d="M17 29h3.5c1.4 0 2.5-1.1 2.5-2.5V23"/>
    <path d="M3 23v3.5C3 27.9 4.1 29 5.5 29H9"/>
    <rect x="12" y="12" width="8" height="8" rx="1.8"/>
  </g>
  <g transform="translate(1164 64)" class="tool">
    <path d="M18.7 2.7 20 6.2c.7.2 1.3.5 1.9.8l3.5-1.5 2.8 4.9-3 2.4c.1.7.1 1.4 0 2.1l3 2.4-2.8 4.9-3.5-1.5c-.6.4-1.2.6-1.9.8L18.7 29h-5.4L12 25.5c-.7-.2-1.3-.5-1.9-.8l-3.5 1.5-2.8-4.9 3-2.4c-.1-.7-.1-1.4 0-2.1l-3-2.4 2.8-4.9L10.1 7c.6-.4 1.2-.6 1.9-.8l1.3-3.5h5.4Z"/>
    <circle cx="16" cy="16" r="5"/>
  </g>

  <!-- source section -->
  <text x="150" y="164" class="label" fill="#191C20" font-size="42" font-weight="720">中文（普通话，简体）</text>
  <path d="m585 145 9 9 9-9" stroke="#737A80" stroke-width="3" stroke-linecap="round" stroke-linejoin="round"/>
  <text x="150" y="276" class="label" fill="#D7DADD" font-size="88" font-weight="760">输入文本</text>

  <g transform="translate(156 340)" class="action">
    <path d="M3 21v-9h6l8-6v21l-8-6H3Z"/>
    <path d="M23 11.5a8 8 0 0 1 0 10"/>
    <path d="M28 7a14 14 0 0 1 0 19"/>
  </g>
  <g transform="translate(235 340)" class="action">
    <rect x="11" y="11" width="18" height="18" rx="4"/>
    <rect x="4" y="4" width="18" height="18" rx="4"/>
  </g>

  <!-- divider and swap -->
  <line x1="92" y1="410" x2="1268" y2="410" stroke="url(#divider)" stroke-width="2"/>
  <g filter="url(#buttonShadow)">
    <circle cx="680" cy="410" r="42" fill="#F7F8FA"/>
    <circle cx="680" cy="410" r="41" stroke="#FFFFFF" stroke-width="2"/>
  </g>
  <g transform="translate(660 390)" class="action cyan">
    <path d="M12 2v36"/>
    <path d="m5 31 7 7 7-7"/>
    <path d="M28 38V2"/>
    <path d="m21 9 7-7 7 7"/>
  </g>

  <!-- target section -->
  <text x="150" y="514" class="label" fill="#12BFD0" font-size="42" font-weight="720">英语（美国）</text>
  <path d="m452 496 9 9 9-9" stroke="#12BFD0" stroke-width="3" stroke-linecap="round" stroke-linejoin="round"/>
  <text x="150" y="638" class="label" fill="#BEEFF3" font-size="88" font-weight="760">Enter text</text>

  <g transform="translate(156 705)" class="action">
    <path d="M3 21v-9h6l8-6v21l-8-6H3Z"/>
    <path d="M23 11.5a8 8 0 0 1 0 10"/>
    <path d="M28 7a14 14 0 0 1 0 19"/>
  </g>
  <g transform="translate(235 705)" class="action">
    <rect x="11" y="11" width="18" height="18" rx="4"/>
    <rect x="4" y="4" width="18" height="18" rx="4"/>
  </g>
  <g transform="translate(314 705)" class="action">
    <rect x="3" y="3" width="28" height="28" rx="6"/>
    <path d="M8 24 12.5 9h2L19 24"/>
    <path d="M9.8 18h7.5"/>
    <path d="M23 13v11"/>
    <path d="M23 13c3 0 5 1.7 5 4.2"/>
  </g>
  <g transform="translate(393 705)" class="action">
    <rect x="3" y="3" width="28" height="28" rx="6"/>
    <path d="M10 17h14"/>
  </g>
</svg>
